<?xml version="1.0" encoding="iso-8859-1"?>
<!-- Generator: Adobe Illustrator 19.0.0, SVG Export Plug-In . SVG Version: 6.00 Build 0)  -->
<svg xmlns="http://www.w3.org/2000/svg" xmlns:xlink="http://www.w3.org/1999/xlink" version="1.1" id="Layer_1" x="0px" y="0px" viewBox="0 0 512 512" style="enable-background:new 0 0 512 512;" xml:space="preserve" width="512" height="512">
<g>
	<g>
		<polygon style="fill:#61729B;" points="502,256 376,356 376,156   "/>
		<path style="fill:#61729B;" d="M256,196c33.14,0,60,26.86,60,60s-26.86,60-60,60s-60-26.86-60-60S222.86,196,256,196z"/>
		<polygon style="fill:#61729B;" points="10,256 136,356 136,156   "/>
	</g>
	<g>
		<path d="M73,246c-5.52,0-10,4.48-10,10s4.48,10,10,10s10-4.48,10-10S78.52,246,73,246z"/>
		<path d="M140.35,146.995c-3.455-1.669-7.561-1.213-10.566,1.172l-126,100C1.393,250.065,0,252.949,0,256s1.393,5.936,3.783,7.833    l126,100c3.017,2.394,7.125,2.834,10.566,1.172c3.455-1.669,5.65-5.168,5.65-9.005V156    C146,152.163,143.805,148.664,140.35,146.995z M26.086,256L126,176.703v26.38l-27.307,20.569    c-4.412,3.322-5.294,9.593-1.971,14.004c3.334,4.426,9.605,5.284,14.004,1.971L126,228.122v107.175L26.086,256z"/>
		<path d="M508.217,248.167l-126-100c-3.006-2.385-7.11-2.842-10.566-1.172c-3.455,1.669-5.65,5.168-5.65,9.005v200    c0,3.837,2.195,7.336,5.65,9.005c3.447,1.665,7.555,1.218,10.566-1.172l126-100c2.39-1.897,3.783-4.781,3.783-7.833    S510.607,250.065,508.217,248.167z M386,335.297V176.703L485.914,256L386,335.297z"/>
		<path d="M326,256c0-38.598-31.402-70-70-70s-70,31.402-70,70s31.402,70,70,70S326,294.598,326,256z M206,256    c0-27.57,22.43-50,50-50s50,22.43,50,50s-22.43,50-50,50S206,283.571,206,256z"/>
	</g>
</g>















</svg>
