<?xml version="1.0" encoding="utf-8"?>
<!-- Generator: Adobe Illustrator 22.0.0, SVG Export Plug-In . SVG Version: 6.00 Build 0)  -->
<svg version="1.1" id="Layer_1" xmlns="http://www.w3.org/2000/svg" xmlns:xlink="http://www.w3.org/1999/xlink" x="0px" y="0px"
	 viewBox="0 0 512 512" style="enable-background:new 0 0 512 512;" xml:space="preserve">
<g>
	<path d="M256,26.1l79.3,99.9H176.7L256,26.1 M256,6.1c-6.1,0-11.9,2.8-15.7,7.6L161,113.6c-4.8,6-5.7,14.2-2.3,21.1
		c3.3,6.9,10.3,11.3,18,11.3h158.6c7.7,0,14.7-4.4,18-11.3c3.3-6.9,2.4-15.1-2.3-21.1l-79.3-99.9C267.9,8.9,262.1,6.1,256,6.1
		L256,6.1z"/>
</g>
<g>
	<path d="M335.3,386L256,485.9L176.7,386H335.3 M335.3,366H176.7c-7.7,0-14.7,4.4-18,11.3c-3.3,6.9-2.4,15.1,2.3,21.1l79.3,99.9
		c3.8,4.8,9.6,7.6,15.7,7.6s11.9-2.8,15.7-7.6l79.3-99.9c4.8-6,5.7-14.2,2.3-21.1C350,370.4,343,366,335.3,366L335.3,366z"/>
</g>
<g>
	<path d="M256,206c27.6,0,50,22.4,50,50c0,27.6-22.4,50-50,50s-50-22.4-50-50C206,228.4,228.4,206,256,206 M256,186
		c-38.6,0-70,31.4-70,70s31.4,70,70,70s70-31.4,70-70S294.6,186,256,186L256,186z"/>
</g>
</svg>
