<?xml version="1.0" encoding="utf-8"?>
<!-- Generator: Adobe Illustrator 22.0.0, SVG Export Plug-In . SVG Version: 6.00 Build 0)  -->
<svg version="1.1" id="Layer_1" xmlns="http://www.w3.org/2000/svg" xmlns:xlink="http://www.w3.org/1999/xlink" x="0px" y="0px"
	 viewBox="0 0 512 512" style="enable-background:new 0 0 512 512;" xml:space="preserve">
<style type="text/css">
	.st0{fill:#FFFFFF;}
	.st1{fill:none;}
</style>
<path class="st0" d="M271.3,218.1l-61.9-38.2v76.5l0,76.5l61.9-38.2l61.9-38.2L271.3,218.1z"/>
<polygon class="st1" points="209.4,179.9 271.3,218.1 333.2,256.3 271.3,294.6 209.4,332.8 209.4,256.3 "/>
<path d="M338.4,247.8l-123.8-76.5c-3.1-1.9-7-2-10.1-0.2c-3.2,1.8-5.1,5.1-5.1,8.7v152.9c0,3.6,2,7,5.1,8.7c1.5,0.8,3.2,1.3,4.9,1.3
	c1.8,0,3.6-0.5,5.3-1.5l123.8-76.5c2.9-1.8,4.7-5,4.7-8.5C343.2,252.9,341.4,249.7,338.4,247.8z M219.4,314.9V197.8l94.7,58.5
	L219.4,314.9z"/>
<path d="M506.4,168.2c-2.9-27.4-9.9-46.5-22.2-60.3c-12-13.4-28.6-21.3-52.3-25c-23.2-3.6-58.5-6.3-100.3-7.8c-0.3,0-0.7-0.1-1-0.1
	c-22-0.7-45.2-1.1-69.1-1.2c-0.3,0-0.7,0-1,0c-1.5,0-2.9,0-4.4,0c-0.3,0-0.6,0-0.9,0c-0.3,0-0.6,0-0.9,0c-1.5,0-3,0-4.4,0
	c-0.3,0-0.7,0-1,0c-23.8,0.1-47,0.5-69.1,1.2c-0.4,0-0.7,0-1,0.1c-41.8,1.5-77.1,4.2-100.3,7.8c-23.7,3.7-40.3,11.6-52.3,25
	c-12.3,13.8-19.4,32.9-22.2,60.3C1.3,192.9,0,224.6,0,256.2c0,31.7,1.3,63.4,3.9,88.1c2.9,27.4,9.9,46.5,22.2,60.3
	c12,13.4,28.6,21.3,52.3,25c23.2,3.6,58.5,6.3,100.3,7.8c0.3,0,0.7,0.1,1,0.1c22,0.7,45.2,1.1,69.1,1.2c0.3,0,0.7,0,1,0
	c1.5,0,2.9,0,4.4,0c0.3,0,0.6,0,0.9,0c0.3,0,0.6,0,0.9,0c1.5,0,3,0,4.4,0c0.3,0,0.7,0,1,0c23.8-0.1,47-0.5,69.1-1.2
	c0.4,0,0.7,0,1-0.1c41.8-1.5,77.1-4.2,100.3-7.8c23.7-3.7,40.3-11.6,52.3-25c12.3-13.8,19.4-32.9,22.2-60.3
	c2.6-24.7,3.9-56.4,3.9-88.1C510.3,224.6,509,192.9,506.4,168.2z M261.4,418.7c-0.4,0-0.8,0-1.3,0c-1.7,0-3.3,0-5,0
	c-1.7,0-3.4,0-5,0c-0.4,0-0.8,0-1.3,0c-56.8-0.2-108-2.3-143.8-5.9c-0.6-0.2-1.3-0.4-2-0.4c-8.1-0.8-15.4-1.8-21.5-2.7
	c-38-5.9-53.1-23.6-57.7-67.6c-2.5-24-3.8-54.9-3.8-85.8c0-30.9,1.3-61.7,3.8-85.8c4.6-44,19.7-61.7,57.7-67.6
	c6.2-1,13.4-1.9,21.5-2.7c0.7-0.1,1.4-0.2,2-0.4c35.8-3.6,87.1-5.7,143.8-5.9c0.4,0,0.8,0,1.3,0c1.7,0,3.3,0,5,0c1.7,0,3.4,0,5,0
	c0.4,0,0.8,0,1.3,0c56.8,0.2,108,2.3,143.8,5.9c0.6,0.2,1.3,0.4,2,0.4c8.1,0.8,15.4,1.8,21.5,2.7c38,5.9,53.1,23.6,57.7,67.6
	c2.5,24,3.8,54.9,3.8,85.8c0,30.9-1.3,61.7-3.8,85.8c-4.6,44-19.7,61.7-57.7,67.6c-6.2,1-13.4,1.9-21.5,2.7c-0.7,0.1-1.4,0.2-2,0.4
	C369.4,416.4,318.2,418.5,261.4,418.7z"/>
</svg>
