<?xml version="1.0" encoding="utf-8"?>
<!-- Generator: Adobe Illustrator 22.0.0, SVG Export Plug-In . SVG Version: 6.00 Build 0)  -->
<svg version="1.1" id="Layer_1" xmlns="http://www.w3.org/2000/svg" xmlns:xlink="http://www.w3.org/1999/xlink" x="0px" y="0px"
	 viewBox="0 0 512 512" style="enable-background:new 0 0 512 512;" xml:space="preserve">
<style type="text/css">
	.st0{fill:#FFFFFF;}
	.st1{fill:#3C7CAB;}
	.st2{opacity:0.96;}
</style>
<path class="st0" d="M271.3,218.1l-61.9-38.2v76.5v76.5l61.9-38.2l61.9-38.2L271.3,218.1z"/>
<path class="st1" d="M486.4,170.5c-4.6-44-19.7-61.7-57.7-67.6c-6.1-0.9-13.4-1.9-21.5-2.7c-0.7,0-1.4-0.2-2-0.4
	c-35.8-3.6-87-5.7-143.8-5.9h-12.6c-56.7,0.2-108,2.3-143.8,5.9c-0.6,0.2-1.3,0.3-2,0.4c-8.1,0.8-15.3,1.7-21.5,2.7
	c-38,5.9-53.1,23.6-57.7,67.6c-2.5,24.1-3.8,54.9-3.8,85.8c0,30.9,1.3,61.8,3.8,85.8c4.6,44,19.7,61.7,57.7,67.6
	c6.1,0.9,13.4,1.9,21.5,2.7c0.7,0,1.4,0.2,2,0.4c35.8,3.6,87,5.7,143.8,5.9h12.6c56.8-0.2,108-2.3,143.8-5.9c0.6-0.2,1.3-0.3,2-0.4
	c8.1-0.8,15.3-1.7,21.5-2.7c38-5.9,53.1-23.6,57.7-67.6c2.5-24.1,3.8-54.9,3.8-85.8C490.2,225.4,488.9,194.5,486.4,170.5z
	 M271.3,294.6l-61.9,38.2v-76.5v-76.4l61.9,38.2l61.9,38.2L271.3,294.6z"/>
<path d="M338.4,247.8l-123.8-76.5c-3.1-1.9-7-2-10.1-0.2c-3.2,1.8-5.1,5.1-5.1,8.7v152.9c0,3.6,2,7,5.1,8.7c1.5,0.8,3.2,1.3,4.9,1.3
	c1.8,0,3.6-0.5,5.3-1.5l123.8-76.5c2.9-1.8,4.7-5,4.7-8.5C343.2,252.9,341.4,249.7,338.4,247.8z M219.4,314.9V197.8l94.7,58.5
	L219.4,314.9z"/>
<path class="st2" d="M506.4,168.2c-2.9-27.4-9.9-46.5-22.2-60.3c-12-13.4-28.6-21.3-52.3-25c-23.2-3.6-58.5-6.3-100.3-7.8
	c-0.3,0-0.7-0.1-1-0.1c-22-0.7-45.2-1.1-69.1-1.2h-12.6c-23.8,0.1-47,0.5-69.1,1.2c-0.4,0-0.7,0-1,0.1c-41.8,1.5-77.1,4.2-100.3,7.8
	c-23.7,3.7-40.3,11.6-52.3,25C13.9,121.7,6.8,140.8,4,168.2c-2.7,24.7-4,56.4-4,88c0,31.7,1.3,63.4,3.9,88.1
	c2.9,27.4,9.9,46.5,22.2,60.3c12,13.4,28.6,21.3,52.3,25c23.2,3.6,58.5,6.3,100.3,7.8c0.3,0,0.7,0.1,1,0.1c22,0.7,45.2,1.1,69.1,1.2
	h12.6c23.8-0.1,47-0.5,69.1-1.2c0.4,0,0.7,0,1-0.1c41.8-1.5,77.1-4.2,100.3-7.8c23.7-3.7,40.3-11.6,52.3-25
	c12.3-13.8,19.4-32.9,22.2-60.3c2.6-24.7,3.9-56.4,3.9-88.1C510.3,224.6,509,192.9,506.4,168.2z M486.4,342.1
	c-4.6,44-19.7,61.7-57.7,67.6c-6.2,1-13.4,1.9-21.5,2.7c-0.7,0.1-1.4,0.2-2,0.4c-35.8,3.6-87,5.7-143.8,5.9h-12.6
	c-56.8-0.2-108-2.3-143.8-5.9c-0.6-0.2-1.3-0.4-2-0.4c-8.1-0.8-15.4-1.8-21.5-2.7c-38-5.9-53.1-23.6-57.7-67.6
	c-2.5-24-3.8-54.9-3.8-85.8c0-30.9,1.3-61.7,3.8-85.8c4.6-44,19.7-61.7,57.7-67.6c6.2-1,13.4-1.9,21.5-2.7c0.7-0.1,1.4-0.2,2-0.4
	c35.8-3.6,87.1-5.7,143.8-5.9h12.6c56.8,0.2,108,2.3,143.8,5.9c0.6,0.2,1.3,0.4,2,0.4c8.1,0.8,15.4,1.8,21.5,2.7
	c38,5.9,53.1,23.6,57.7,67.6c2.5,24,3.8,54.9,3.8,85.8C490.2,287.2,488.9,318,486.4,342.1z"/>
</svg>
